<svg width="24" height="24" viewBox="0 0 24 24" fill="none" xmlns="http://www.w3.org/2000/svg">
<path d="M3.6 5C3.6 4.2268 4.2268 3.6 5 3.6H12H19C19.7732 3.6 20.4 4.2268 20.4 5V12V19C20.4 19.7732 19.7732 20.4 19 20.4H12H5C4.2268 20.4 3.6 19.7732 3.6 19V12V5Z" stroke="black" stroke-width="1.2"/>
<path d="M8 6.5V8M8 9.5V8M8 8H9.5M8 8H6.5" stroke="black" stroke-width="1.2" stroke-linecap="round"/>
<path d="M18 8H16.5H15" stroke="black" stroke-width="1.2" stroke-linecap="round"/>
<path d="M18 15H16.5H15" stroke="black" stroke-width="1.2" stroke-linecap="round"/>
<path d="M18 17H16.5H15" stroke="black" stroke-width="1.2" stroke-linecap="round"/>
<path d="M6.93957 15.4393L8.00023 16.5M9.06089 17.5607L8.00023 16.5M8.00023 16.5L9.06089 15.4393M8.00023 16.5L6.93957 17.5607" stroke="black" stroke-width="1.2" stroke-linecap="round"/>
</svg>
