<svg width="24" height="24" viewBox="0 0 24 24" fill="none" xmlns="http://www.w3.org/2000/svg">
<path d="M9.27951 5.69444H8.22847C8.0438 5.69444 7.95779 5.46554 8.09677 5.34393L11.7867 2.11524C11.8621 2.04926 11.9747 2.04926 12.0501 2.11524L15.74 5.34393C15.879 5.46554 15.793 5.69444 15.6083 5.69444H14.5573M9.27951 5.69444V8.86111M9.27951 5.69444H14.5573M14.5573 5.69444V8.86111M6.87841 21H16.4406C16.5614 21 16.6546 20.8938 16.6389 20.7741L15.1078 9.03524C15.0948 8.93563 15.0099 8.86111 14.9095 8.86111H8.91996C8.82272 8.86111 8.73957 8.93105 8.72291 9.02684L6.68137 20.7657C6.66009 20.8881 6.75425 21 6.87841 21Z" stroke="black" stroke-width="1.2" stroke-linecap="round"/>
<path d="M8.22309 13.6111L15.0842 11.5M7.69531 16.7778L15.612 14.1389" stroke="black" stroke-width="1.5" stroke-linecap="round"/>
<path d="M18.25 4.63856L19.3056 3.58301M18.25 6.74967H20.3611M18.25 8.86079L19.3056 9.91634" stroke="black" stroke-width="1.5" stroke-linecap="round"/>
</svg>
