<svg width="24" height="24" viewBox="0 0 24 24" fill="none" xmlns="http://www.w3.org/2000/svg">
<path d="M15.115 1C13.9368 1 12.7648 1.46041 11.8678 2.35747L2.34772 11.8775C0.55076 13.6745 0.55076 16.584 2.34772 18.381C4.14468 20.1779 7.0542 20.1779 8.85116 18.381L10.1643 17.0678C10.6502 19.8687 13.1 22.0098 16.0378 22.0098C19.3239 22.0098 22 19.3337 22 16.0475C22 13.1097 19.859 10.6599 17.0581 10.174L18.3712 8.86091C20.1682 7.06395 20.1682 4.15443 18.3712 2.35747C17.4726 1.45891 16.2933 1 15.115 1ZM15.115 2.13566C16.0014 2.13566 16.8893 2.47255 17.5727 3.15598C18.9397 4.52301 18.9397 6.69538 17.5727 8.0624L15.5232 10.1119C14.2846 10.2176 13.1564 10.7028 12.2493 11.4516L8.30995 7.51231L12.6663 3.15598C13.3512 2.47105 14.2287 2.13566 15.115 2.13566ZM7.50256 8.31083L11.4419 12.2502C11.4405 12.2519 11.4433 12.2573 11.4419 12.259C10.693 13.1661 10.2078 14.2943 10.1022 15.5329L8.05265 17.5824C6.68562 18.9495 4.51326 18.9495 3.14623 17.5824C1.77921 16.2154 1.77921 14.0431 3.14623 12.676L7.50256 8.31083ZM16.0378 11.221C17.1678 11.221 18.1972 11.6117 19.0189 12.259L12.2493 19.0286C11.602 18.207 11.2112 17.1775 11.2112 16.0475C11.2112 13.3751 13.3654 11.221 16.0378 11.221ZM19.8263 13.0575C20.4762 13.8801 20.8643 14.915 20.8643 16.0475C20.8643 18.7199 18.7101 20.8741 16.0378 20.8741C14.9052 20.8741 13.8703 20.486 13.0478 19.836L19.8263 13.0575Z" fill="black"/>
</svg>
