<svg width="24" height="24" viewBox="0 0 24 24" fill="none" xmlns="http://www.w3.org/2000/svg">
<g clip-path="url(#clip0_1090_1904)">
<path d="M21.7915 2.71484H11.2445C10.027 2.71484 9.03594 3.68616 9.03594 4.87931V11.5046L7.07826 10.5513C7.01096 10.5213 6.94367 10.4913 6.87637 10.4614C7.45144 9.87377 7.80627 9.07634 7.80627 8.20096C7.80627 6.39624 6.30742 4.92728 4.46597 4.92728C2.62452 4.92728 1.12567 6.39624 1.12567 8.20096C1.12567 9.18426 1.56615 10.0596 2.26969 10.6652C0.984961 11.3727 0 12.7577 0 14.4725V16.685C0 17.6383 0.63013 18.4477 1.50497 18.7355V22.5848C1.50497 22.9625 1.81698 23.2743 2.20851 23.2743H6.72954C7.11496 23.2743 7.43309 22.9685 7.43309 22.5848V14.8503L9.68443 15.9535C10.547 16.3732 11.7155 16.1214 12.2417 15.162H14.7622L12.0948 22.3569C11.9602 22.7167 12.1499 23.1124 12.517 23.2383C12.933 23.3882 13.3061 23.1304 13.4163 22.8246L16.261 15.162H16.7566L19.6319 22.8306C19.742 23.1244 20.1091 23.3942 20.5373 23.2383C20.9044 23.1064 21.0879 22.7107 20.9534 22.3569L18.2554 15.162H21.7976C22.9906 15.162 24.0061 14.2147 24.0061 12.9976V4.87931C24 3.65618 22.9845 2.71484 21.7915 2.71484ZM4.46597 6.3063C5.53046 6.3063 6.39918 7.1577 6.39918 8.20096C6.39918 9.24422 5.53046 10.0956 4.46597 10.0956C3.40148 10.0956 2.53276 9.24422 2.53276 8.20096C2.53276 7.1577 3.40148 6.3063 4.46597 6.3063ZM11.0365 14.4246C11.0365 14.4306 11.0303 14.4366 11.0303 14.4425C10.9814 14.5745 10.8713 14.6824 10.7428 14.7363C10.6021 14.7903 10.443 14.7843 10.3084 14.7184C8.96865 14.0648 7.04155 13.1175 7.04155 13.1175C6.5766 12.8896 6.026 13.2194 6.026 13.735V21.9013H2.91206V18.1599C2.91206 17.7822 2.60005 17.4704 2.20851 17.4704C1.76803 17.4704 1.40709 17.1167 1.40709 16.685V14.4725C1.40709 12.7877 2.80806 11.4686 4.47209 11.4686H5.0961C5.56717 11.4686 6.03824 11.5766 6.46036 11.7804C6.46036 11.7804 9.94749 13.4772 10.8346 13.9149C11.0181 14.0109 11.1099 14.2327 11.0365 14.4246ZM22.5929 12.9976C22.5929 13.2074 22.5073 13.4053 22.3604 13.5552C22.2136 13.6991 22.0056 13.783 21.7915 13.783H12.3946C12.3946 13.777 12.3946 13.777 12.3885 13.771L14.132 10.3534C14.3033 10.0117 14.1626 9.59797 13.82 9.43009C13.4713 9.26221 13.0492 9.40011 12.8779 9.73587L11.3913 12.6498C11.116 12.5119 10.7917 12.356 10.443 12.1881V4.87931C10.443 4.44762 10.804 4.09387 11.2445 4.09387H21.7854C21.9995 4.09387 22.2014 4.17781 22.3543 4.32171C22.5073 4.4716 22.5868 4.66946 22.5868 4.87931V12.9976H22.5929Z" fill="black"/>
<path d="M20.2814 5.66406H12.7504C12.365 5.66406 12.0469 5.96984 12.0469 6.35357C12.0469 6.7373 12.3589 7.04308 12.7504 7.04308H20.2814C20.6668 7.04308 20.985 6.7373 20.985 6.35357C20.985 5.96984 20.673 5.66406 20.2814 5.66406Z" fill="black"/>
<path d="M20.2784 8.24805H16.516C16.1306 8.24805 15.8125 8.55383 15.8125 8.93756C15.8125 9.32129 16.1245 9.62707 16.516 9.62707H20.2784C20.6638 9.62707 20.982 9.32129 20.982 8.93756C20.982 8.55383 20.67 8.24805 20.2784 8.24805Z" fill="black"/>
<path d="M20.2784 10.834H16.516C16.1306 10.834 15.8125 11.1398 15.8125 11.5235C15.8125 11.9012 16.1245 12.213 16.516 12.213H20.2784C20.6638 12.213 20.982 11.9072 20.982 11.5235C20.982 11.1398 20.67 10.834 20.2784 10.834Z" fill="black"/>
</g>
<defs>
<clipPath id="clip0_1090_1904">
<rect width="24" height="24" fill="white"/>
</clipPath>
</defs>
</svg>
