<svg width="24" height="24" viewBox="0 0 24 24" fill="none" xmlns="http://www.w3.org/2000/svg">
<g clip-path="url(#clip0_1090_1916)">
<path d="M14.6369 8.4007C16.7489 8.4007 18.4769 6.6727 18.4769 4.5607C18.4769 2.4487 16.7489 0.720703 14.6369 0.720703C12.5249 0.720703 10.7969 2.4487 10.7969 4.5607C10.7969 6.6727 12.5249 8.4007 14.6369 8.4007ZM14.6369 2.1607C15.9569 2.1607 17.0369 3.2407 17.0369 4.5607C17.0369 5.8807 15.9569 6.9607 14.6369 6.9607C13.3169 6.9607 12.2369 5.8807 12.2369 4.5607C12.2369 3.2407 13.3169 2.1607 14.6369 2.1607Z" fill="black"/>
<path d="M22.321 15.1204H21.577C21.169 11.2804 17.737 8.49645 13.897 8.90445C10.609 9.24045 8.01694 11.8324 7.68094 15.1204H3.91294V12.2884C3.91294 10.9204 4.56094 10.4164 5.01694 10.2004C5.61694 11.0644 6.79294 11.2804 7.65694 10.6804C8.52094 10.0804 8.73694 8.90445 8.13694 8.04045C7.53694 7.17645 6.36094 6.96045 5.49694 7.56045C5.08894 7.84845 4.80094 8.28045 4.70494 8.76045C3.72094 9.09645 2.47294 10.0564 2.47294 12.2644V15.1204H1.68094C1.27294 15.1204 0.960938 15.4324 0.960938 15.8404V18.7204C0.960938 19.1284 1.27294 19.4404 1.68094 19.4404H2.47294V22.5604C2.47294 22.9684 2.78494 23.2804 3.19294 23.2804C3.60094 23.2804 3.91294 22.9684 3.91294 22.5604V19.4404H20.161V22.5604C20.161 22.9684 20.473 23.2804 20.881 23.2804C21.289 23.2804 21.601 22.9684 21.601 22.5604V19.4404H22.321C22.729 19.4404 23.041 19.1284 23.041 18.7204V15.8404C23.041 15.4324 22.729 15.1204 22.321 15.1204ZM6.57694 8.66445C6.81694 8.66445 7.03294 8.88045 7.03294 9.12045C7.03294 9.36045 6.81694 9.57645 6.57694 9.57645C6.33694 9.57645 6.12094 9.36045 6.12094 9.12045C6.12094 8.88045 6.33694 8.66445 6.57694 8.66445ZM14.617 10.2964C17.401 10.2964 19.753 12.3604 20.113 15.1204H9.12094C9.48094 12.3604 11.833 10.2964 14.617 10.2964ZM2.40094 16.5604H21.601V18.0004H2.40094V16.5604Z" fill="black"/>
</g>
<defs>
<clipPath id="clip0_1090_1916">
<rect width="24" height="24" fill="white"/>
</clipPath>
</defs>
</svg>
