<svg width="24" height="24" viewBox="0 0 24 24" fill="none" xmlns="http://www.w3.org/2000/svg">
<path d="M21.9393 9.54473C21.7883 9.05798 21.3765 8.72154 20.896 8.67143L15.3222 8.14173L13.1188 2.76592C12.9266 2.30064 12.4872 2 11.9999 2C11.5124 2 11.0732 2.30064 10.881 2.77309L8.67754 8.14889L3.10372 8.67143C2.61637 8.72154 2.21137 9.05798 2.06036 9.54473C1.90933 10.0314 2.04662 10.5612 2.4173 10.8904L6.63198 14.7416L5.38954 20.4467C5.27971 20.9406 5.46504 21.456 5.86318 21.7567C6.07597 21.9141 6.31622 22 6.57707 22C6.79672 22 7.00951 21.9356 7.20172 21.821L12.0068 18.8218L16.8118 21.8139C17.2304 22.0788 17.7521 22.0501 18.1503 21.7567C18.5484 21.456 18.7338 20.9478 18.6239 20.4467L17.3814 14.7416L21.5961 10.8904C21.9531 10.5612 22.0904 10.0314 21.9393 9.54473ZM8.2039 14.8919C8.30687 14.4409 8.15585 13.9613 7.8195 13.6536L4.07159 10.2319L9.03449 9.75949C9.48067 9.71653 9.86511 9.42304 10.0436 8.99356L11.9999 4.21188L13.9562 8.99356C14.1347 9.42304 14.5191 9.71653 14.9652 9.75949L19.9212 10.2319L16.1733 13.6607C15.837 13.9686 15.686 14.441 15.789 14.8991L16.8941 19.9742L12.6177 17.3113C12.4254 17.1969 12.2127 17.1324 11.993 17.1324C11.7733 17.1324 11.5606 17.1969 11.3683 17.3113L7.09876 19.9671L8.2039 14.8919Z" fill="black"/>
</svg>
